<svg width="202" height="202" xmlns="http://www.w3.org/2000/svg" xmlns:xlink="http://www.w3.org/1999/xlink" xml:space="preserve" overflow="hidden"><defs><clipPath id="clip0"><rect x="1190" y="2053" width="202" height="202"/></clipPath></defs><g clip-path="url(#clip0)" transform="translate(-1190 -2053)"><path d="M1346.74 2069.77C1330.77 2059.17 1311.6 2053 1291 2053 1270.4 2053 1251.23 2059.17 1235.26 2069.77 1221.03 2079.2 1209.34 2092.14 1201.4 2107.34 1194.11 2121.29 1190 2137.17 1190 2154 1190 2170.83 1194.11 2186.71 1201.4 2200.69 1218.26 2232.97 1252.06 2255 1291 2255 1346.77 2255 1392 2209.77 1392 2154 1392 2118.83 1374.03 2087.86 1346.74 2069.77Z" fill="#E71B24"/><path d="M1245.34 2089.06 1251.23 2106.89 1270 2106.97 1254.86 2118.06 1260.57 2135.94 1245.34 2124.97 1230.11 2135.94 1235.83 2118.06 1220.69 2106.97 1239.46 2106.89Z" fill="#F7F700"/><path d="M1296.83 2127.77 1298.43 2132.63 1303.57 2132.66 1299.43 2135.69 1301 2140.57 1296.83 2137.6 1292.69 2140.57 1294.23 2135.69 1290.09 2132.66 1295.23 2132.63Z" fill="#F7F700"/><path d="M1292.31 2100.29 1296.89 2102.6 1300.51 2099 1299.74 2104.06 1304.31 2106.4 1299.26 2107.23 1298.43 2112.29 1296.06 2107.74 1291 2108.51 1294.6 2104.89Z" fill="#F7F700"/><path d="M1281.83 2144.97 1279.51 2149.54 1283.14 2153.2 1278.06 2152.43 1275.71 2156.97 1274.89 2151.91 1269.83 2151.09 1274.37 2148.74 1273.6 2143.66 1277.26 2147.29Z" fill="#F7F700"/><path d="M1271.14 2083.91 1275.71 2086.2 1279.34 2082.6 1278.57 2087.66 1283.14 2090.03 1278.06 2090.86 1277.26 2095.91 1274.89 2091.34 1269.83 2092.11 1273.43 2088.49Z" fill="#F7F700"/></g></svg>