<svg width="202" height="202" xmlns="http://www.w3.org/2000/svg" xmlns:xlink="http://www.w3.org/1999/xlink" xml:space="preserve" overflow="hidden"><defs><clipPath id="clip0"><rect x="1430" y="2053" width="202" height="202"/></clipPath></defs><g clip-path="url(#clip0)" transform="translate(-1430 -2053)"><path d="M1531 2255C1586.78 2255 1632 2209.78 1632 2154 1632 2098.22 1586.78 2053 1531 2053 1475.22 2053 1430 2098.22 1430 2154 1430 2209.78 1475.22 2255 1531 2255Z" fill="#E92B2B" fill-rule="evenodd"/><path d="M1570.68 2246.91C1558.5 2252.12 1545.09 2255 1531 2255 1516.91 2255 1503.5 2252.12 1491.32 2246.91L1491.32 2061.09C1503.5 2055.88 1516.91 2053 1531 2053 1545.09 2053 1558.5 2055.88 1570.68 2061.09L1570.68 2246.91Z" fill="#FBFBFB" fill-rule="evenodd"/><path d="M1491.32 2061.09C1455.27 2076.51 1430 2112.3 1430 2154 1430 2195.69 1455.27 2231.49 1491.32 2246.91L1491.32 2061.09Z" fill="#2A2FAF" fill-rule="evenodd"/></g></svg>