<svg width="203" height="202" xmlns="http://www.w3.org/2000/svg" xmlns:xlink="http://www.w3.org/1999/xlink" xml:space="preserve" overflow="hidden"><defs><clipPath id="clip0"><rect x="950" y="2053" width="203" height="202"/></clipPath></defs><g clip-path="url(#clip0)" transform="translate(-950 -2053)"><path d="M209.207 68.0496C197.408 51.9833 180.975 39.537 161.874 32.6826L161.874 91.7164 209.207 68.0496" fill="#273376" transform="matrix(1.00495 0 0 1 923.083 2026.22)"/><path d="M93.809 91.7181 93.809 32.6256C74.6609 39.4599 58.1821 51.9078 46.3545 67.9909L93.8073 91.7164 93.809 91.7181" fill="#273376" transform="matrix(1.00495 0 0 1 923.083 2026.22)"/><path d="M93.8073 163.8 46.3545 187.527C58.1821 203.61 74.6609 216.058 93.809 222.893L93.809 163.8 93.8073 163.8" fill="#273376" transform="matrix(1.00495 0 0 1 923.083 2026.22)"/><path d="M161.874 222.836C180.975 215.98 197.408 203.533 209.207 187.467L161.874 163.8 161.874 222.836" fill="#273376" transform="matrix(1.00495 0 0 1 923.083 2026.22)"/><path d="M93.809 91.7181 93.8073 91.7164 46.3545 67.9909C42.9877 72.5683 39.9981 77.4408 37.431 82.5632L59.2854 93.4803 36.9481 93.4803 33.3968 91.7198C33.1437 92.3854 32.8938 93.0544 32.6541 93.7268L93.809 93.7268 93.809 91.7181" fill="#FFFFFF" transform="matrix(1.00495 0 0 1 923.083 2026.22)"/><path d="M161.874 93.7268 173.077 93.7268 213.086 73.7236C211.857 71.7853 210.562 69.8956 209.207 68.0496L161.874 91.7164 161.874 93.7268" fill="#FFFFFF" transform="matrix(1.00495 0 0 1 923.083 2026.22)"/><path d="M218.572 161.931 222.155 163.708C222.396 163.071 222.634 162.434 222.864 161.791L161.874 161.791 161.874 163.8 209.207 187.467C212.574 182.881 215.564 178 218.131 172.87L196.233 161.931 218.572 161.931" fill="#FFFFFF" transform="matrix(1.00495 0 0 1 923.083 2026.22)"/><path d="M59.2787 161.791 32.6541 161.791C34.0021 165.559 35.5699 169.224 37.3388 172.771L59.2753 161.793 59.2787 161.791" fill="#FFFFFF" transform="matrix(1.00495 0 0 1 923.083 2026.22)"/><path d="M93.809 163.8 93.809 161.791 82.2262 161.791 42.3807 181.714C43.6382 183.699 44.9645 185.638 46.3545 187.527L93.8073 163.8 93.809 163.8" fill="#FFFFFF" transform="matrix(1.00495 0 0 1 923.083 2026.22)"/><path d="M222.864 93.7268C221.504 89.9274 219.923 86.2352 218.138 82.6621L196.03 93.7268 222.864 93.7268" fill="#FFFFFF" transform="matrix(1.00495 0 0 1 923.083 2026.22)"/><path d="M161.874 161.791 222.864 161.791C224.44 157.385 225.725 152.841 226.682 148.178L148.26 148.178 148.26 226.664C152.923 225.703 157.469 224.415 161.874 222.836L161.874 161.791" fill="#FFFFFF" transform="matrix(1.00495 0 0 1 923.083 2026.22)"/><path d="M148.26 107.34 226.682 107.34C225.725 102.675 224.44 98.1315 222.864 93.7268L196.03 93.7268 196.027 93.7285 173.076 93.7285 173.077 93.7268 161.874 93.7268 161.874 32.6826C157.469 31.1014 152.923 29.8154 148.26 28.8529L148.26 107.34" fill="#FFFFFF" transform="matrix(1.00495 0 0 1 923.083 2026.22)"/><path d="M107.422 148.178 28.8362 148.178C29.7936 152.841 31.0779 157.385 32.6541 161.791L59.2787 161.791 59.4933 161.684 82.4408 161.684 82.2262 161.791 93.809 161.791 93.809 222.893C98.2137 224.465 102.758 225.746 107.422 226.701L107.422 148.178" fill="#FFFFFF" transform="matrix(1.00495 0 0 1 923.083 2026.22)"/><path d="M107.422 107.34 107.422 28.8177C102.758 29.7718 98.2137 31.0528 93.809 32.6256L93.809 93.7268 32.6541 93.7268C31.0779 98.1315 29.7936 102.675 28.8362 107.34L107.422 107.34" fill="#FFFFFF" transform="matrix(1.00495 0 0 1 923.083 2026.22)"/><path d="M148.26 148.178 226.682 148.178C228.037 141.584 228.748 134.754 228.748 127.759 228.748 120.764 228.037 113.935 226.682 107.34L148.26 107.34 148.26 28.8529C141.641 27.4881 134.783 26.7688 127.759 26.7688 120.792 26.7688 113.992 27.4747 107.422 28.8177L107.422 107.34 28.8362 107.34C27.4814 113.935 26.7688 120.764 26.7688 127.759 26.7688 134.754 27.4814 141.584 28.8362 148.178L107.422 148.178 107.422 226.701C113.992 228.044 120.792 228.748 127.759 228.748 134.783 228.748 141.641 228.03 148.26 226.664L148.26 148.178" fill="#D21D2C" transform="matrix(1.00495 0 0 1 923.083 2026.22)"/><path d="M59.2854 93.4803 37.431 82.5632C35.9404 85.5344 34.594 88.5893 33.3968 91.7198L36.9481 93.4803 59.2854 93.4803" fill="#D21D2C" transform="matrix(1.00495 0 0 1 923.083 2026.22)"/><path d="M173.076 93.7285 196.027 93.7285 196.03 93.7268 218.138 82.6621C216.602 79.5904 214.917 76.6075 213.086 73.7236L173.077 93.7268 173.076 93.7285" fill="#D21D2C" transform="matrix(1.00495 0 0 1 923.083 2026.22)"/><path d="M218.572 161.931 196.233 161.931 218.131 172.87C219.616 169.897 220.961 166.84 222.155 163.708L218.572 161.931" fill="#D21D2C" transform="matrix(1.00495 0 0 1 923.083 2026.22)"/><path d="M82.2262 161.791 82.4408 161.684 59.4933 161.684 59.2753 161.793 37.3388 172.771C38.8713 175.844 40.5548 178.829 42.3807 181.714L82.2262 161.791" fill="#D21D2C" transform="matrix(1.00495 0 0 1 923.083 2026.22)"/></g></svg>