<svg width="205" height="202" xmlns="http://www.w3.org/2000/svg" xmlns:xlink="http://www.w3.org/1999/xlink" xml:space="preserve" overflow="hidden"><defs><clipPath id="clip0"><rect x="468" y="2053" width="205" height="202"/></clipPath></defs><g clip-path="url(#clip0)" transform="translate(-468 -2053)"><path d="M204.44 101.057C204.44 156.87 158.676 202.114 102.225 202.114 45.7637 202.114 0 156.87 0 101.057 0 45.2435 45.7637 0 102.225 0 158.676 0 204.44 45.2435 204.44 101.057Z" fill="#FFFFFF" transform="matrix(1.00232 0 0 1 468.006 2053)"/><path d="M102.225 0C58.954 0.0294428 20.3841 26.9891 5.9376 67.3157L198.571 67.3157C184.115 26.9695 145.515 0 102.225 0Z" fill="#FF6600" transform="matrix(1.00232 0 0 1 468.006 2053)"/><path d="M97.2785 133.257C89.6136 131.795 84.471 129.283 79.6227 124.601 75.4419 120.568 72.7528 116.112 70.947 110.243 70.0931 107.436 70.0146 106.739 70.0146 101.587 70.0146 96.4443 70.0931 95.7475 70.947 92.9406 74.4408 81.5758 82.5965 73.6164 93.765 70.6722 98.0833 69.5337 105.277 69.5337 109.664 70.6722 120.587 73.5085 129.018 81.7524 132.433 92.9406 133.287 95.7475 133.365 96.4541 133.365 101.587 133.365 106.72 133.287 107.436 132.433 110.243 129.018 121.471 120.764 129.567 109.792 132.453 107.014 133.189 99.4475 133.67 97.2785 133.257ZM103.874 129.106C104.698 127.516 106.386 127.222 107.682 128.439 108.329 129.047 108.634 129.116 109.546 128.851 110.38 128.615 110.704 128.282 110.92 127.447 111.077 126.849 111.607 126.093 112.088 125.779 112.913 125.229 113.03 125.229 113.972 125.779 115.239 126.505 115.454 126.495 116.593 125.691 117.329 125.161 117.486 124.827 117.368 124.022 117.142 122.432 118.32 121.471 120.175 121.755 121.471 121.951 121.706 121.873 122.324 121.088 122.874 120.381 122.953 120.018 122.697 119.351 122.226 118.114 122.305 117.614 123.06 116.858 123.473 116.436 124.189 116.171 124.915 116.171 125.887 116.171 126.191 115.994 126.633 115.131 127.124 114.188 127.124 114.012 126.633 113.276 125.563 111.647 126.083 110.371 128.193 109.478 128.782 109.222 129.165 108.732 129.322 108.035 129.518 107.171 129.4 106.838 128.674 106.17 127.232 104.835 127.477 103.776 129.636 101.999 130.529 101.273 130.244 100.203 128.812 98.8782 127.222 97.4061 127.153 96.9154 128.331 95.512 129.135 94.5698 129.175 94.3637 128.812 93.2841 128.507 92.3616 128.242 92.0966 127.604 92.0966 126.564 92.0966 125.426 90.9778 125.426 89.9669 125.426 89.5351 125.671 88.8383 125.975 88.4065 126.486 87.6704 126.476 87.5624 125.858 86.7184 125.494 86.2277 124.827 85.7763 124.376 85.7272 122.55 85.5113 122.099 85.2757 121.706 84.3238 121.412 83.6171 121.402 83.146 121.657 82.6651 121.942 82.1254 121.873 81.8015 121.304 81.0752 120.656 80.2508 120.43 80.1822 119.105 80.3784 117.82 80.5747 117.525 80.4962 116.76 79.7307 116.181 79.1517 115.955 78.6413 116.092 78.2193 116.23 77.7777 116.014 77.3557 115.386 76.8649 114.296 76.0013 113.796 75.9817 112.677 76.7079 111.539 77.4636 110.302 76.8944 109.644 75.3143 109.252 74.382 108.908 74.0973 107.947 73.9207 106.975 73.744 106.582 73.8422 105.964 74.4114 104.885 75.4321 103.668 75.3241 102.588 74.117 101.302 72.6841 100.007 72.7332 98.8292 74.2838 97.7692 75.6676 96.778 75.805 95.4531 74.7647 94.6777 74.1562 94.4128 74.117 93.3921 74.4506 92.6855 74.6862 92.1261 75.1278 91.9985 75.5793 91.4685 77.3066 89.9767 77.9838 88.4752 77.179 87.5134 76.6687 85.6094 78.0819 85.5113 79.3872 85.4033 80.7514 84.2256 81.6739 82.9498 81.3893 81.4286 81.0556 80.2999 82.2726 80.3686 84.1667 80.4373 85.9137 79.9564 86.5712 78.3861 86.8656 76.8355 87.1601 75.8737 88.907 76.5705 90.1926 77.1986 91.3802 76.7668 92.5971 75.4321 93.3823 73.9011 94.2852 73.5281 95.7966 74.5193 97.0528 75.4811 98.2698 75.4124 98.9862 74.2151 100.35 73.6557 100.988 73.1944 101.832 73.1944 102.235 73.1944 102.627 73.6557 103.432 74.2151 104.021 75.3437 105.199 75.5204 106.455 74.7058 107.613 73.8814 108.791 74.4703 110.439 75.9817 111.166 77.4636 111.862 77.7973 112.716 77.2183 114.306 76.8355 115.366 76.8649 115.592 77.4832 116.426 77.9445 117.044 78.6217 117.437 79.4559 117.564 80.9869 117.82 81.3206 118.281 81.3304 120.136 81.3304 122.01 82.4492 122.972 84.3041 122.727 85.7959 122.521 86.6399 123.217 86.8166 124.807 86.8951 125.504 87.2484 125.995 87.9943 126.427 89.0051 127.016 89.1033 127.016 90.0749 126.456 91.4096 125.691 92.7051 126.221 93.3823 127.83 94.0496 129.43 95.5905 129.734 97.0037 128.547 98.3385 127.428 98.8684 127.477 100.125 128.87 101.528 130.431 103.128 130.529 103.864 129.106ZM101.577 120.754C101.145 118.34 101.145 109.468 101.577 109.036 101.862 108.751 102.029 108.761 102.235 109.095 102.559 109.625 102.441 118.84 102.078 120.754L101.823 122.108ZM96.6112 120.676C96.5817 117.918 99.2512 108.378 100.056 108.378 100.537 108.378 100.007 111.048 98.574 115.837 97.0724 120.823 96.6308 121.922 96.6112 120.676ZM105.346 116.514C103.756 111.519 103.108 108.378 103.638 108.378 103.805 108.378 104.188 108.908 104.502 109.556 105.208 111.028 107.22 119.998 107.034 120.823 106.955 121.157 106.2 119.223 105.346 116.514ZM109.065 115.121C106.465 111.087 104.826 107.839 105.199 107.466 105.768 106.896 112.451 118.32 112.127 119.292 112.049 119.498 110.675 117.623 109.065 115.121ZM91.6452 118.693C92.3223 116.887 96.7584 109.016 97.4748 108.349 99.3591 106.582 97.9263 110.086 94.8053 114.885 92.391 118.615 91.0759 120.195 91.6452 118.693ZM87.1404 116.279C87.2189 116.053 88.7402 114.218 90.5263 112.206 93.5884 108.751 96.3756 106.337 96.8074 106.769 97.1804 107.152 95.8064 108.722 92.2536 111.99 87.7097 116.171 86.9736 116.789 87.1404 116.279ZM112.176 112.618C108.506 109.232 106.259 106.739 106.592 106.416 106.671 106.327 107.279 106.592 107.927 106.995 109.703 108.094 116.603 115.621 116.21 116.014 116.112 116.112 114.296 114.581 112.176 112.618ZM83.8821 111.843C84.7458 110.979 92.4892 106.209 93.9908 105.621 97.9066 104.08 95.139 106.425 89.6038 109.35 85.2855 111.637 83.1755 112.549 83.8821 111.843ZM114.561 109.478C110.282 107.269 107.799 105.611 107.799 104.963 107.799 104.355 110.744 105.817 115.17 108.634 117.643 110.204 119.665 111.548 119.665 111.627 119.665 112.01 118.644 111.578 114.561 109.478ZM82.0174 106.857C82.0174 106.582 91.6648 103.638 93.3136 103.412 95.2273 103.147 95.3942 103.609 93.6865 104.423 91.6255 105.405 82.0174 107.417 82.0174 106.857ZM115.935 105.837C111.067 104.718 108.477 103.795 108.477 103.187 108.477 103 109.154 102.971 110.086 103.098 112.039 103.373 121.294 106.298 121.559 106.72 121.834 107.161 121.333 107.083 115.935 105.837ZM99.575 105.13C96.9841 103.726 97.0233 99.3886 99.6536 98.0342 101.685 96.9841 104.296 97.6907 105.248 99.5456 107.181 103.285 103.275 107.132 99.5849 105.13ZM83.0381 101.95 81.8506 101.724 83.2049 101.489C83.9508 101.351 86.4731 101.214 88.799 101.175 93.1369 101.106 95.0899 101.391 94.187 101.96 93.6473 102.303 84.8243 102.294 83.0381 101.95ZM111.018 102.038C108.643 101.567 108.614 101.558 109.252 101.204 109.949 100.812 118.153 100.821 120.175 101.214L121.529 101.479 120.008 101.685C117.977 101.97 111.872 102.205 111.018 102.038ZM92.7051 99.9971C91.1446 99.7811 82.0174 96.7976 82.0174 96.5032 82.0174 96.0321 91.2918 98.044 93.6374 99.0254 94.3343 99.3199 94.9035 99.7124 94.9035 99.8989 94.9035 100.233 94.5796 100.252 92.7051 99.9971ZM108.477 99.6634C108.477 99.0549 110.94 98.1716 115.504 97.1509 121.932 95.7181 122.452 96.0616 116.701 97.9459 111.794 99.5554 108.477 100.252 108.477 99.6634ZM94.0595 97.9655C92.3027 97.2589 83.6269 91.7237 83.8821 91.4685 84.2354 91.125 93.2547 95.9438 94.6974 97.2491 96.2284 98.6329 96.1008 98.7801 94.0595 97.9655ZM108.692 96.9154C110.076 95.6788 119.203 90.8404 119.527 91.1643 119.792 91.4292 110.645 97.1607 109.095 97.7103 107.142 98.3973 107.112 98.3286 108.692 96.9154ZM94.8446 95.7279C93.2645 94.5207 86.689 87.3073 86.9343 87.0619 87.2975 86.6988 95.8555 94.7072 96.5719 96.0812 97.1215 97.1509 96.5719 97.0332 94.8446 95.7279ZM106.435 96.091C106.435 95.8653 108.084 94.0889 110.086 92.1555 113.933 88.4359 116.465 86.2768 116.24 86.9049 115.955 87.69 110.263 93.9515 108.702 95.1979 106.975 96.5621 106.435 96.778 106.435 96.091ZM96.8467 94.4913C96.0812 93.5786 91.9101 85.9627 91.3998 84.5298 90.9189 83.1755 92.0377 84.5495 94.4913 88.3181 96.9841 92.1457 98.6133 95.4825 97.9851 95.4825 97.8183 95.4825 97.308 95.0409 96.8467 94.4913ZM105.1 95.2764C105.1 95.0605 105.307 94.2557 105.581 93.4804 106.18 91.7826 111.627 83.411 111.804 83.9214 111.98 84.4808 107.426 93.0093 106.2 94.4128 105.601 95.0998 105.1 95.4825 105.1 95.2764ZM98.839 93.5393C98.2109 92.2242 96.2578 83.8134 96.2775 82.4983 96.2873 81.2617 96.7486 82.3609 98.2305 87.2091 99.7026 91.9788 100.262 94.8053 99.7517 94.8053 99.5849 94.8053 99.1727 94.2361 98.839 93.5393ZM103.314 94.6287C102.961 94.0398 103.628 90.9778 105.12 86.3062 106.838 80.9477 107.191 81.4286 105.935 87.3956 105.061 91.5274 103.707 95.2666 103.314 94.6287ZM101.165 94.0987C100.851 93.5884 100.9 85.6389 101.224 82.9399 101.44 81.2028 101.479 81.1439 101.734 82.0861 102.195 83.7643 102.254 93.6963 101.813 94.138 101.518 94.4324 101.361 94.4226 101.155 94.0987Z" fill="#0000FF" transform="matrix(1.00232 0 0 1 468.006 2053)"/><path d="M6.19277 135.515C20.8454 175.468 59.2288 202.094 102.225 202.124 145.211 202.094 183.595 175.468 198.247 135.515Z" fill="#00AA00" transform="matrix(1.00232 0 0 1 468.006 2053)"/></g></svg>