<svg width="205" height="202" xmlns="http://www.w3.org/2000/svg" xmlns:xlink="http://www.w3.org/1999/xlink" xml:space="preserve" overflow="hidden"><g transform="translate(-2150 -2053)"><path d="M167.484 67.1409C124.605 67.1409 87.9391 94.1829 73.5991 132.101L167.541 142.15 261.362 132.101C247.025 94.1862 210.363 67.1409 167.484 67.1409Z" fill="#F1F1F1" transform="matrix(1 0 0 1.00179 2085.02 1986.38)"/><path d="M167.484 267.827C210.363 267.827 247.025 240.785 261.365 202.866L167.484 196.167 73.6024 202.866C87.9391 240.781 124.605 267.827 167.484 267.827Z" fill="#E90000" transform="matrix(1 0 0 1.00179 2085.02 1986.38)"/><path d="M262.524 135.381C262.152 134.282 261.771 133.187 261.362 132.105L73.5991 132.105C65.0474 154.129 65.0474 180.839 73.5991 202.863 73.5991 202.863 261.362 202.863 261.362 202.863 269.471 181.988 269.94 156.527 262.524 135.381Z" fill="#0000D2" transform="matrix(1 0 0 1.00179 2085.02 1986.38)"/></g></svg>