<svg width="202" height="202" xmlns="http://www.w3.org/2000/svg" xmlns:xlink="http://www.w3.org/1999/xlink" xml:space="preserve" overflow="hidden"><defs><clipPath id="clip0"><rect x="1910" y="2053" width="202" height="202"/></clipPath><clipPath id="clip1"><path d="M2111.81 2153.82C2111.81 2209.6 2066.6 2254.81 2010.82 2254.81 1955.04 2254.81 1909.83 2209.6 1909.83 2153.82 1909.83 2098.04 1955.04 2052.83 2010.82 2052.83 2066.6 2052.83 2111.81 2098.04 2111.81 2153.82Z"/></clipPath><clipPath id="clip2"><path d="M2111.81 2153.82C2111.81 2209.6 2066.6 2254.81 2010.82 2254.81 1955.04 2254.81 1909.83 2209.6 1909.83 2153.82 1909.83 2098.04 1955.04 2052.83 2010.82 2052.83 2066.6 2052.83 2111.81 2098.04 2111.81 2153.82Z"/></clipPath></defs><g clip-path="url(#clip0)" transform="translate(-1910 -2053)"><g clip-path="url(#clip1)"><path d="M1859.34 2254.81 1859.34 2052.84 2162.3 2052.84 2162.3 2254.81 1859.34 2254.81" fill="#EA1E25"/></g><g><g clip-path="url(#clip2)"><path d="M2010.67 2098.07 2024.71 2139.52 2070.13 2139.52 2033.3 2166.47 2046.94 2207.55 2010.7 2183.14 1974.43 2207.55 1988.04 2166.47 1951.51 2139.52 1996.96 2139.52 2010.67 2098.07" fill="#F8ED08"/></g></g></g></svg>