<svg width="1131" height="1178" xmlns="http://www.w3.org/2000/svg" xmlns:xlink="http://www.w3.org/1999/xlink" xml:space="preserve" overflow="hidden"><defs><clipPath id="clip0"><rect x="0" y="0" width="1131" height="1178"/></clipPath></defs><g clip-path="url(#clip0)"><rect x="0" y="0" width="876" height="769" fill="#FE4C00"/><g><g><g><path d="M1.95495e-14 351.002 8.4026e-14 701.995 351.003 351.002 702 0.0045166 351.003 0.0045166-4.49277e-14 0.0045166Z"/></g></g></g><g><g><g><path d="M876.642 133.657 876.642 635.199C1015.13 635.199 1127.41 522.924 1127.41 384.429 1127.41 245.934 1015.13 133.657 876.642 133.657Z" fill="#FFDF2B"/><path d="M876.642 133.657 876.642 635.199C1015.13 635.199 1127.41 522.924 1127.41 384.429 1127.41 245.934 1015.13 133.657 876.642 133.657Z" fill="#FFDF2B"/><path d="M877.02 133.664C738.771 133.955 626.79 246.113 626.79 384.43 626.79 522.742 738.771 634.903 877.02 635.191L877.02 133.664Z" fill="#FFFFFF"/></g></g></g><g><g><g><path d="M0 1178C225.884 1178 408.998 994.884 409 769.001L0 769.001 0 1178Z" fill="#0050F5"/></g></g></g></g></svg>