<svg width="218" height="151" xmlns="http://www.w3.org/2000/svg" xmlns:xlink="http://www.w3.org/1999/xlink" xml:space="preserve" overflow="hidden"><g transform="translate(-1953 -542)"><path d="M93.5827 34.823C82.7553 35.1194 74.1444 36.8542 67.7325 40.0536 61.3206 43.2661 56.2643 48.2788 52.5592 55.1223 67.3707 55.1223 79.6605 58.7488 89.42 66.0107 99.1752 73.2769 104.053 85.1026 104.053 101.479 104.053 107.603 102.987 113.586 100.849 119.431 98.7109 125.265 95.4309 130.433 91.0132 134.916 86.5998 139.403 81.258 143.108 74.99 146.029 68.7241 148.953 61.5363 150.403 53.4179 150.403 37.3163 150.403 24.3922 145.172 14.6371 134.706 4.88193 124.243 0 110.247 0 92.7349 0 83.0495 1.39048 73.2573 4.16926 63.3562 6.94368 53.4615 11.8932 44.2687 19.0199 35.7929 26.1423 27.3214 35.7514 19.8764 47.8604 13.4733 59.9628 7.05483 75.2123 2.56519 93.5827 0L93.5827 34.823ZM207.467 34.823C196.633 35.1194 188.022 36.8542 181.612 40.0536 175.207 43.2661 170.077 48.2788 166.232 55.1288 181.185 55.1288 193.542 58.7554 203.3 66.0151 213.055 73.2813 217.943 85.1069 217.943 101.485 217.943 107.61 216.838 113.59 214.631 119.435 212.414 125.27 209.139 130.437 204.791 134.922 200.451 139.41 195.147 143.115 188.881 146.033 182.602 148.96 175.346 150.411 167.089 150.411 151.133 150.411 138.244 145.176 128.419 134.713 118.581 124.241 113.668 110.245 113.668 92.7262 113.668 83.0408 115.052 73.2486 117.831 63.3474 120.608 53.4463 125.594 44.26 132.784 35.7841 139.974 27.3127 149.629 19.8677 161.738 13.4645 173.845 7.05483 189.086 2.56519 207.467 0L207.467 34.823Z" fill="#FFDE59" transform="matrix(1 0 0 1.00385 1953.03 542)"/></g></svg>