<svg width="716" height="405" xmlns="http://www.w3.org/2000/svg" xmlns:xlink="http://www.w3.org/1999/xlink" xml:space="preserve" overflow="hidden"><g transform="translate(-149 -66)"><path d="M774 225 845 225 845 347 774 347Z" fill="#FBEB78" fill-rule="evenodd"/><path d="M478 227 549 227 549 301 478 301Z" fill="#B9E185" fill-rule="evenodd"/><path d="M395.5 205C375.894 205 360 220.894 360 240.5 360 260.106 375.894 276 395.5 276 415.106 276 431 260.106 431 240.5 431 220.894 415.106 205 395.5 205Z" fill="#DF3821" fill-rule="evenodd"/><text font-family="Calibri,Calibri_MSFontService,sans-serif" font-weight="700" font-size="192" transform="matrix(1 0 0 1 264 304)">cortex</text><path d="M716.5 276C707.939 276 701 282.94 701 291.5 701 300.06 707.939 307 716.5 307 725.06 307 732 300.06 732 291.5 732 282.94 725.06 276 716.5 276Z" fill="#642EC7" fill-rule="evenodd"/></g></svg>